<?xml version="1.0" encoding="UTF-8"?>
<svg version="1.1" xmlns="http://www.w3.org/2000/svg" width="1050" height="421">
<path d="M0 0 C52.14 0 104.28 0 158 0 C158 37.31795302 158 37.31795302 157.1875 48.6875 C157.1433194 49.33770111 157.09913879 49.98790222 157.05361938 50.6578064 C154.64982825 85.8375786 146.99184756 122.06513196 124 150 C123.31550781 150.8353125 122.63101563 151.670625 121.92578125 152.53125 C112.82092566 163.12361341 102.09897231 171.12316881 90 178 C88.59814453 178.82951172 88.59814453 178.82951172 87.16796875 179.67578125 C86.30816406 180.15402344 85.44835937 180.63226563 84.5625 181.125 C83.82128906 181.54007813 83.08007812 181.95515625 82.31640625 182.3828125 C76.31449397 183.98197294 69.53713715 178.85082451 64.44140625 176.05078125 C37.35929998 160.32200529 21.20097328 135.84270556 11 107 C10.62319092 105.94159912 10.62319092 105.94159912 10.23876953 104.86181641 C4.06824911 87.06108539 2.00347508 68.20490372 0.75 49.5 C0.66983643 48.34814209 0.58967285 47.19628418 0.50708008 46.00952148 C-0.3727864 30.66550851 0 15.40350732 0 0 Z " fill="#0B0A08" transform="translate(143,117)"/>
<path d="M0 0 C46.53 0 93.06 0 141 0 C141 27.25176056 141 27.25176056 140.25 38.375 C140.16347168 39.67228027 140.07694336 40.96956055 139.98779297 42.30615234 C138.79592009 59.04686266 136.9110312 76.18484738 131 92 C126.71148669 89.21182243 122.6330357 86.24277024 118.625 83.0625 C118.02631104 82.59013916 117.42762207 82.11777832 116.81079102 81.63110352 C111.4658483 77.40023631 106.18616217 73.09031379 100.90625 68.77880859 C95.67331589 64.51752366 90.35895248 60.38030871 84.98046875 56.3046875 C81.2562012 53.42484759 77.6752796 50.38746879 74.12109375 47.30078125 C72.13569117 45.77573839 72.13569117 45.77573839 70.07983398 46.2590332 C67.81478289 47.06598591 66.43996785 48.01448767 64.6015625 49.5546875 C63.96468506 50.0813501 63.32780762 50.6080127 62.67163086 51.15063477 C61.65854858 52.00419556 61.65854858 52.00419556 60.625 52.875 C59.18179425 54.0699829 57.73776951 55.2639773 56.29296875 56.45703125 C55.20894775 57.35542725 55.20894775 57.35542725 54.10302734 58.27197266 C51.08573304 60.75124002 48.01747332 63.16185451 44.9375 65.5625 C40.05159585 69.37813194 35.20468427 73.23848847 30.375 77.125 C24.0226339 82.23084848 17.55935065 87.16293695 11 92 C8.74865437 89.74865437 8.50017126 88.70379411 7.78125 85.66796875 C7.57113281 84.78560547 7.36101562 83.90324219 7.14453125 82.99414062 C6.93183594 82.06794922 6.71914062 81.14175781 6.5 80.1875 C6.28730469 79.30384766 6.07460937 78.42019531 5.85546875 77.50976562 C2.99852966 65.3195746 1.62500552 53.17324759 0.875 40.6875 C0.78863281 39.42099609 0.70226562 38.15449219 0.61328125 36.84960938 C-0.15320873 24.50668735 0 12.44522308 0 0 Z " fill="#FAD04D" transform="translate(151,126)"/>
<path d="M0 0 C2.17658524 0.88317497 3.63648162 1.89248803 5.43359375 3.40136719 C6.07562744 3.93318604 6.71766113 4.46500488 7.37915039 5.01293945 C8.05840576 5.58584717 8.73766113 6.15875488 9.4375 6.74902344 C10.88167513 7.94570986 12.32700166 9.14100802 13.7734375 10.33496094 C14.48983398 10.92760742 15.20623047 11.52025391 15.94433594 12.13085938 C18.77152231 14.44230249 21.65745638 16.66100013 24.5625 18.87402344 C30.16880377 23.14549298 35.67621717 27.52931287 41.15258789 31.96606445 C44.40580766 34.64381422 44.40580766 34.64381422 48 36.81152344 C44.42832273 46.33045868 37.88630346 53.4971194 31 60.81152344 C30.47019531 61.41738281 29.94039063 62.02324219 29.39453125 62.64746094 C22.25083623 70.47063338 11.02130222 78.23823713 1 81.81152344 C-4.30746339 81.84576514 -8.21170253 79.27334524 -12.5625 76.49902344 C-13.25923828 76.05824463 -13.95597656 75.61746582 -14.67382812 75.16333008 C-21.85517688 70.47532336 -28.0122745 64.92336905 -34 58.81152344 C-34.77085937 58.02777344 -35.54171875 57.24402344 -36.3359375 56.43652344 C-41.3516328 51.0557009 -45.23114779 45.11257322 -49 38.81152344 C-45.48927666 35.21690414 -41.84635643 31.85953974 -38 28.62402344 C-37.43385986 28.14626465 -36.86771973 27.66850586 -36.28442383 27.17626953 C-31.98342129 23.57435096 -27.58985957 20.12170282 -23.10766602 16.74707031 C-19.91869484 14.33363928 -16.82077101 11.84221682 -13.765625 9.26074219 C-12.68728394 8.35654541 -12.68728394 8.35654541 -11.5871582 7.43408203 C-10.17576744 6.24566055 -8.77290245 5.0470244 -7.37963867 3.83740234 C-6.73744385 3.29905762 -6.09524902 2.76071289 -5.43359375 2.20605469 C-4.86697021 1.71983643 -4.30034668 1.23361816 -3.71655273 0.73266602 C-2 -0.18847656 -2 -0.18847656 0 0 Z " fill="#FBD04D" transform="translate(222,208.1884765625)"/>
<path d="M0 0 C1.93166016 0.01740234 1.93166016 0.01740234 3.90234375 0.03515625 C5.19269531 0.04417969 6.48304688 0.05320313 7.8125 0.0625 C8.81152344 0.07410156 9.81054688 0.08570313 10.83984375 0.09765625 C11.0130162 0.61939423 11.18618866 1.1411322 11.36460876 1.67868042 C13.16338696 7.09709745 14.96425726 12.51481584 16.76635742 17.93212891 C17.43909802 19.95538691 18.1113006 21.97882389 18.78295898 24.00244141 C19.74712813 26.90704544 20.71321502 29.81100543 21.6796875 32.71484375 C21.98075912 33.62321991 22.28183075 34.53159607 22.59202576 35.46749878 C23.01234825 36.72857956 23.01234825 36.72857956 23.44116211 38.01513672 C23.68764999 38.75682098 23.93413788 39.49850525 24.18809509 40.26266479 C24.81943374 42.1585547 24.81943374 42.1585547 25.83984375 44.09765625 C32.27484375 22.81265625 32.27484375 22.81265625 38.83984375 1.09765625 C44.77984375 1.09765625 50.71984375 1.09765625 56.83984375 1.09765625 C48.97678554 24.81230521 40.98269613 48.47760927 32.83984375 72.09765625 C28.21984375 72.09765625 23.59984375 72.09765625 18.83984375 72.09765625 C14.99618843 63.15908373 11.69040151 54.12287909 8.58984375 44.91015625 C7.92245114 42.93181386 7.25382981 40.95392426 6.581604 38.97721863 C5.98195906 37.21348638 5.38684402 35.44821591 4.79199219 33.68286133 C4.08305907 31.20115505 4.08305907 31.20115505 2.83984375 30.09765625 C2.420979 31.33443115 2.00211426 32.57120605 1.57055664 33.84545898 C0.021115 38.41792116 -1.53218213 42.98906559 -3.08666992 47.55981445 C-3.75993021 49.54122551 -4.43213323 51.52299613 -5.10327148 53.50512695 C-6.06609214 56.34811252 -7.03266226 59.18979873 -8 62.03125 C-8.30107162 62.92291367 -8.60214325 63.81457733 -8.91233826 64.73326111 C-9.19255325 65.55403641 -9.47276825 66.37481171 -9.76147461 67.22045898 C-10.00796249 67.94659897 -10.25445038 68.67273895 -10.50840759 69.42088318 C-11.16015625 71.09765625 -11.16015625 71.09765625 -12.16015625 72.09765625 C-14.5132918 72.17037366 -16.86849293 72.18136493 -19.22265625 72.16015625 C-21.15818359 72.14662109 -21.15818359 72.14662109 -23.1328125 72.1328125 C-24.13183594 72.12121094 -25.13085938 72.10960937 -26.16015625 72.09765625 C-34.61924988 48.57221874 -42.55459184 24.91224269 -50.16015625 1.09765625 C-44.22015625 1.09765625 -38.28015625 1.09765625 -32.16015625 1.09765625 C-30.95150499 4.98961661 -29.74296134 8.88161017 -28.53466797 12.77368164 C-28.12554734 14.09140831 -27.71636978 15.40911731 -27.30712891 16.72680664 C-24.57838714 25.51308695 -21.86111128 34.30278786 -19.16015625 43.09765625 C-17.49604107 40.60148349 -16.66071442 38.95957921 -15.75561523 36.19287109 C-15.49872421 35.41551605 -15.24183319 34.63816101 -14.97715759 33.83724976 C-14.70625809 33.00279327 -14.43535858 32.16833679 -14.15625 31.30859375 C-13.87290298 30.44956451 -13.58955597 29.59053528 -13.29762268 28.70547485 C-12.39333771 25.96259294 -11.49501808 23.21781024 -10.59765625 20.47265625 C-9.69619329 17.72054427 -8.79341579 14.96889203 -7.88697815 12.21841431 C-7.32301525 10.50666457 -6.76201904 8.79393413 -6.20420837 7.08016968 C-3.91405607 0.12095353 -3.91405607 0.12095353 0 0 Z " fill="#FFFFFF" transform="translate(369.16015625,174.90234375)"/>
<path d="M0 0 C52.14 0 104.28 0 158 0 C158 37.31795302 158 37.31795302 157.1875 48.6875 C157.1433194 49.33770111 157.09913879 49.98790222 157.05361938 50.6578064 C154.64982825 85.8375786 146.99184756 122.06513196 124 150 C123.31550781 150.8353125 122.63101563 151.670625 121.92578125 152.53125 C112.82092566 163.12361341 102.09897231 171.12316881 90 178 C88.59814453 178.82951172 88.59814453 178.82951172 87.16796875 179.67578125 C86.30816406 180.15402344 85.44835937 180.63226563 84.5625 181.125 C83.82128906 181.54007813 83.08007812 181.95515625 82.31640625 182.3828125 C76.31449397 183.98197294 69.53713715 178.85082451 64.44140625 176.05078125 C37.35929998 160.32200529 21.20097328 135.84270556 11 107 C10.62319092 105.94159912 10.62319092 105.94159912 10.23876953 104.86181641 C4.06824911 87.06108539 2.00347508 68.20490372 0.75 49.5 C0.66983643 48.34814209 0.58967285 47.19628418 0.50708008 46.00952148 C-0.3727864 30.66550851 0 15.40350732 0 0 Z M5 6 C4.66129276 51.9283576 4.66129276 51.9283576 13 97 C13.2263916 97.76554199 13.4527832 98.53108398 13.68603516 99.31982422 C23.20257975 130.53283417 39.81447896 155.34040295 68 172 C69.38251953 172.89525391 69.38251953 172.89525391 70.79296875 173.80859375 C75.18448983 176.46374975 75.18448983 176.46374975 80.15625 176.6875 C82.63059139 175.68341944 84.74058982 174.42511134 87 173 C87.98871094 172.44570313 88.97742188 171.89140625 89.99609375 171.3203125 C119.97508595 153.97352469 136.2568679 125.26450882 145.32470703 92.61328125 C148.83634003 79.02379475 149.86555579 64.94799153 151 51 C151.17015625 49.08574219 151.17015625 49.08574219 151.34375 47.1328125 C152.40792439 33.38722669 152 19.87517584 152 6 C103.49 6 54.98 6 5 6 Z " fill="#FBFBFB" transform="translate(143,117)"/>
<path d="M0 0 C8.96125511 6.42223283 13.63151755 14.69844684 15.46875 25.4921875 C16.59764177 35.66789245 14.14195543 45.2037145 8.1328125 53.4921875 C0.7953553 62.3109154 -8.61225038 66.66689046 -19.9375 67.71484375 C-31.72954327 68.14398457 -41.59137263 64.18992488 -50.21875 56.3046875 C-58.17373454 48.00383406 -60.03050896 38.49072072 -59.8046875 27.38671875 C-59.1384422 17.89748209 -55.17722551 10.23010338 -48.53125 3.4921875 C-34.96642379 -8.03035075 -15.22689538 -9.070342 0 0 Z M-39.34375 18.78125 C-42.98711987 24.03057896 -43.27324375 29.25016504 -42.53125 35.4921875 C-40.78507896 41.77245039 -38.06575169 45.87347486 -32.53125 49.4921875 C-26.8579617 52.56271986 -21.77361117 53.24921573 -15.53125 51.4921875 C-9.17788202 48.82971495 -5.40788398 44.70226001 -2.53125 38.4921875 C-0.53904332 31.78764577 -1.4801295 26.18907994 -4.1953125 19.86328125 C-6.77075803 15.29224196 -10.44359079 12.70083231 -14.90625 10.1171875 C-25.08557602 7.69353845 -32.94368258 10.5376849 -39.34375 18.78125 Z " fill="#FFFFFF" transform="translate(811.53125,180.5078125)"/>
<path d="M0 0 C8.10211389 6.04160769 13.08431319 13.80376788 14.75 23.8125 C15.6804051 35.31291713 13.792577 44.98501832 6.37109375 54.03515625 C-0.29157261 61.34000732 -8.19617555 65.9746813 -18.25 66.8125 C-18.95253906 66.87566406 -19.65507813 66.93882812 -20.37890625 67.00390625 C-30.14655979 67.48993716 -40.00192752 64.78785051 -47.54296875 58.4375 C-54.62788868 51.69304533 -59.64366425 43.96924984 -60.48828125 34 C-60.73178955 23.54195944 -58.90198969 13.86420868 -52.0703125 5.625 C-38.06312897 -8.32206686 -16.68884072 -10.8613852 0 0 Z M-40.0625 18.02734375 C-43.29969278 22.89378158 -43.94888524 28.08164104 -43.25 33.8125 C-41.56780632 40.45532321 -38.7272895 45.06382506 -33.0625 49.0625 C-28.31019508 51.55035193 -23.39744722 52.4615174 -18.109375 51.37109375 C-12.67834926 49.55729699 -8.09672367 46.76037567 -4.9921875 41.8046875 C-1.92757181 35.65402523 -1.04453591 30.11365295 -2.91015625 23.45703125 C-5.48060734 16.8139174 -9.54039365 12.96016684 -15.625 9.4375 C-25.74748546 7.02738441 -33.66276169 9.83637434 -40.0625 18.02734375 Z " fill="#FFFFFF" transform="translate(890.25,181.1875)"/>
<path d="M0 0 C6.208125 -0.0825 12.41625 -0.165 18.8125 -0.25 C20.74843018 -0.28641602 22.68436035 -0.32283203 24.67895508 -0.36035156 C44.7879967 -0.58382216 44.7879967 -0.58382216 52.20996094 5.94360352 C57.31144526 11.2622438 59.05102251 16.06368721 59.3125 23.375 C59.10672713 31.81168749 56.81910624 36.75707463 50.81640625 42.65234375 C48.84992278 44.11134761 47.36261981 44.47928801 45 45 C45.41362793 45.60996826 45.82725586 46.21993652 46.25341797 46.84838867 C48.13216142 49.62482434 50.00363442 52.40608677 51.875 55.1875 C52.52597656 56.14720703 53.17695312 57.10691406 53.84765625 58.09570312 C54.47285156 59.02705078 55.09804688 59.95839844 55.7421875 60.91796875 C56.60626221 62.19837036 56.60626221 62.19837036 57.48779297 63.50463867 C58.96615619 65.94415279 60.02382423 68.32494323 61 71 C54.65030312 72.35332614 48.17579184 73.53595317 42 71 C37.83924366 66.93736161 35.03714122 62.02711264 32.33764648 56.91357422 C31.79309814 55.92244629 31.2485498 54.93131836 30.6875 53.91015625 C30.23761719 52.99371338 29.78773438 52.07727051 29.32421875 51.13305664 C26.16732983 47.80286486 26.16732983 47.80286486 16 48 C16 55.59 16 63.18 16 71 C10.72 71 5.44 71 0 71 C0 47.57 0 24.14 0 0 Z M16 15 C16 21.27 16 27.54 16 34 C20.269375 34.0928125 20.269375 34.0928125 24.625 34.1875 C25.51010254 34.21481201 26.39520508 34.24212402 27.30712891 34.27026367 C32.28219813 34.32233226 35.7215708 33.82376327 40 31 C42.44794742 27.32807887 42.71435887 24.26893972 42 20 C39.79259319 17.03141843 38.51402627 16.17134209 35 15 C33.51876453 14.9193378 32.03417796 14.89238807 30.55078125 14.90234375 C29.78677002 14.90484131 29.02275879 14.90733887 28.2355957 14.90991211 C27.27097412 14.91901611 26.30635254 14.92812012 25.3125 14.9375 C22.239375 14.958125 19.16625 14.97875 16 15 Z " fill="#FFFFFF" transform="translate(627,176)"/>
<path d="M0 0 C17.82 0 35.64 0 54 0 C54 4.95 54 9.9 54 15 C41.79 15 29.58 15 17 15 C17 19.29 17 23.58 17 28 C27.56 28 38.12 28 49 28 C49 32.62 49 37.24 49 42 C38.44 42 27.88 42 17 42 C17 46.62 17 51.24 17 56 C29.21 56 41.42 56 54 56 C54 60.95 54 65.9 54 71 C36.18 71 18.36 71 0 71 C0 47.57 0 24.14 0 0 Z " fill="#FFFFFF" transform="translate(557,176)"/>
<path d="M0 0 C5.28 0 10.56 0 16 0 C21.00704349 9.56967483 25.12058484 19.49309508 29.3125 29.4375 C30.04072318 31.15832691 30.76923715 32.8790308 31.49804688 34.59960938 C32.94428784 38.01535295 34.38682151 41.43262729 35.82666016 44.85107422 C37.31703412 48.38797475 38.81800173 51.92015093 40.32568359 55.44970703 C40.69799606 56.32466324 41.07030853 57.19961945 41.4539032 58.10108948 C42.16561748 59.77346298 42.8800324 61.44469043 43.5974884 63.11460876 C46 68.77453099 46 68.77453099 46 71 C40.39 71 34.78 71 29 71 C23 58.375 23 58.375 23 55 C13.43 55.33 3.86 55.66 -6 56 C-7.98 60.95 -9.96 65.9 -12 71 C-17.61 71 -23.22 71 -29 71 C-26.52035448 63.08223534 -23.36456545 55.50728099 -20.125 47.875 C-19.55539337 46.52610891 -18.98614521 45.17706639 -18.41723633 43.82788086 C-17.2272761 41.0065827 -16.03575825 38.18594964 -14.84326172 35.36572266 C-12.06798015 28.79785789 -9.31472519 22.2207508 -6.55975342 15.64434814 C-5.16957761 12.32635034 -3.77810301 9.00889742 -2.38671875 5.69140625 C-1.59910156 3.81324219 -0.81148438 1.93507812 0 0 Z M8 21 C4.73450272 27.18111986 2.31012271 33.39964941 0 40 C5.28 40 10.56 40 16 40 C13.91923185 33.54961873 11.57778144 27.26780359 9 21 C8.67 21 8.34 21 8 21 Z " fill="#FFFFFF" transform="translate(448,176)"/>
<path d="M0 0 C19.47 0 38.94 0 59 0 C59 4.95 59 9.9 59 15 C52.07 15 45.14 15 38 15 C38 33.48 38 51.96 38 71 C32.39 71 26.78 71 21 71 C21 52.52 21 34.04 21 15 C14.07 15 7.14 15 0 15 C0 10.05 0 5.1 0 0 Z " fill="#FFFFFF" transform="translate(488,176)"/>
<path d="M0 0 C5.28 0 10.56 0 16 0 C16 18.48 16 36.96 16 56 C26.89 56 37.78 56 49 56 C49 60.95 49 65.9 49 71 C32.83 71 16.66 71 0 71 C0 47.57 0 24.14 0 0 Z " fill="#FFFFFF" transform="translate(702,176)"/>
<path d="M0 0 C4.16941013 1.75281172 7.4067741 4.60317908 10.875 7.4375 C12.22482685 8.52918214 13.57509723 9.62031607 14.92578125 10.7109375 C15.60721191 11.26233398 16.28864258 11.81373047 16.99072266 12.38183594 C19.99463464 14.80102532 23.02624738 17.1841093 26.0625 19.5625 C26.63315186 20.01020752 27.20380371 20.45791504 27.79174805 20.91918945 C30.12449926 22.74875311 32.45857358 24.57661456 34.79394531 26.40283203 C42.60618094 32.51207626 50.35518066 38.68132279 58 45 C56.68 48.3 55.36 51.6 54 55 C50.32698956 54.08174739 49.27497283 53.68430464 46.56640625 51.41015625 C45.92445313 50.87841797 45.2825 50.34667969 44.62109375 49.79882812 C43.94175781 49.22583984 43.26242187 48.65285156 42.5625 48.0625 C41.11703731 46.86449423 39.67040878 45.66789381 38.22265625 44.47265625 C37.50609863 43.87984863 36.78954102 43.28704102 36.05126953 42.67626953 C33.24757135 40.38512555 30.38325378 38.19040681 27.5 36 C21.66176086 31.5518178 15.96364062 26.94625041 10.29101562 22.2890625 C9.64583984 21.76054687 9.00066406 21.23203125 8.3359375 20.6875 C7.76407715 20.21699219 7.1922168 19.74648437 6.60302734 19.26171875 C3.67422934 16.70804236 3.67422934 16.70804236 0.02709961 16.21313477 C-2.18499081 17.07180843 -3.61892096 18.06622043 -5.43359375 19.58984375 C-6.39652344 20.38745117 -6.39652344 20.38745117 -7.37890625 21.20117188 C-8.05824219 21.77416016 -8.73757812 22.34714844 -9.4375 22.9375 C-10.88296269 24.13550577 -12.32959122 25.33210619 -13.77734375 26.52734375 C-14.49390137 27.12015137 -15.21045898 27.71295898 -15.94873047 28.32373047 C-18.75242865 30.61487445 -21.61674622 32.80959319 -24.5 35 C-30.3045055 39.42421008 -35.97433813 43.9995648 -41.62109375 48.62304688 C-50.63636407 56 -50.63636407 56 -53 56 C-54.98 50.555 -54.98 50.555 -57 45 C-48.1676107 37.65906806 -39.31654217 30.3809555 -30.17578125 23.42578125 C-26.75825956 20.81534955 -23.37623463 18.16341715 -20 15.5 C-13.37528541 10.27833023 -6.69703273 5.12845862 0 0 Z " fill="#F9F9F9" transform="translate(221,182)"/>
<path d="M0 0 C3.40969712 0.80609687 6.70183868 1.82108276 10 3 C7.9375 5.5 7.9375 5.5 5 8 C1.1875 8.3125 1.1875 8.3125 -2 8 C-1.505 9.98 -1.505 9.98 -1 12 C-1.495 11.67 -1.99 11.34 -2.5 11 C-6.09090894 9.56363642 -9.14456127 9.87148538 -13 10 C-13.33 12.31 -13.66 14.62 -14 17 C-13.34 17 -12.68 17 -12 17 C-12 16.34 -12 15.68 -12 15 C-11.01 15.33 -10.02 15.66 -9 16 C-12.19271333 33.99187863 -12.19271333 33.99187863 -17 38 C-17.66 38.144375 -18.32 38.28875 -19 38.4375 C-21.20536208 38.82936741 -21.20536208 38.82936741 -22.4375 41.0625 C-22.953125 41.701875 -23.46875 42.34125 -24 43 C-26.6875 43.25 -26.6875 43.25 -29 43 C-28.24849977 46.27773504 -28.24849977 46.27773504 -25 48 C-25 48.66 -25 49.32 -25 50 C-26.828125 51.3671875 -26.828125 51.3671875 -29.25 52.875 C-32.57357014 55.00749414 -35.25434691 57.15265605 -38 60 C-41.09647064 61.93529415 -42.13930677 62 -46 62 C-46.86516528 57.50114053 -47.30903272 54.98352209 -45 51 C-43.96939453 51.05220703 -43.96939453 51.05220703 -42.91796875 51.10546875 C-42.01691406 51.13253906 -41.11585938 51.15960938 -40.1875 51.1875 C-39.29417969 51.22230469 -38.40085938 51.25710937 -37.48046875 51.29296875 C-34.58352485 50.95081002 -33.77444972 50.24606427 -32 48 C-33.1446875 47.814375 -33.1446875 47.814375 -34.3125 47.625 C-37 47 -37 47 -40 45 C-40.1875 41.375 -40.1875 41.375 -40 38 C-38.02 37.01 -36.04 36.02 -34 35 C-37.465 33.515 -37.465 33.515 -41 32 C-40.67 30.68 -40.34 29.36 -40 28 C-39.38511719 27.93941406 -38.77023438 27.87882812 -38.13671875 27.81640625 C-37.32847656 27.73261719 -36.52023438 27.64882812 -35.6875 27.5625 C-34.88699219 27.48128906 -34.08648437 27.40007812 -33.26171875 27.31640625 C-30.83912821 27.04734307 -30.83912821 27.04734307 -28 26 C-27.69707031 26.56589844 -27.39414063 27.13179687 -27.08203125 27.71484375 C-24.58106339 32.35353832 -24.58106339 32.35353832 -20.3125 35.125 C-17.80221125 35.24748441 -17.80221125 35.24748441 -16 33 C-15.60235737 31.01178687 -15.26224651 29.01055661 -15 27 C-16.65 26.67 -18.3 26.34 -20 26 C-19.67 25.01 -19.34 24.02 -19 23 C-18.01 23 -17.02 23 -16 23 C-16.32226562 22.44054687 -16.64453125 21.88109375 -16.9765625 21.3046875 C-18.75079936 17.30926861 -18.5549045 13.28359203 -18 9 C-13.73095676 0.61437934 -8.89876017 -0.98594218 0 0 Z " fill="#CF1D43" transform="translate(222,134)"/>
<path d="M0 0 C2.375 0.875 2.375 0.875 4.375 2.875 C4.86578346 7.63287302 3.79738908 10.92462457 1.875 15.25 C1.17890625 16.83941406 1.17890625 16.83941406 0.46875 18.4609375 C0.1078125 19.25757813 -0.253125 20.05421875 -0.625 20.875 C0.035 20.875 0.695 20.875 1.375 20.875 C1.705 20.215 2.035 19.555 2.375 18.875 C2.44919134 23.09249219 2.5036204 27.30963811 2.53979492 31.52758789 C2.55487589 32.96222552 2.5753438 34.39681708 2.60131836 35.83129883 C2.63773437 37.89415859 2.65473243 39.95640858 2.66796875 42.01953125 C2.6836792 43.26065674 2.69938965 44.50178223 2.71557617 45.78051758 C2.375 48.875 2.375 48.875 1.10668945 50.8034668 C-0.625 51.875 -0.625 51.875 -4.625 51.875 C-4.22696439 54.76075819 -3.83490931 55.69689513 -1.5625 57.625 C-0.6034375 58.24375 -0.6034375 58.24375 0.375 58.875 C-0.17355348 63.446279 -1.04244803 67.54935795 -2.625 71.875 C-7.08 72.37 -7.08 72.37 -11.625 72.875 C-11.625 71.885 -11.625 70.895 -11.625 69.875 C-12.285 69.875 -12.945 69.875 -13.625 69.875 C-13.625 67.895 -13.625 65.915 -13.625 63.875 C-11.15 63.38 -11.15 63.38 -8.625 62.875 C-7.635 64.36 -7.635 64.36 -6.625 65.875 C-6.24281233 64.21885343 -5.91104898 62.55042976 -5.625 60.875 C-7.63677181 58.86322819 -11.54977333 59.43836065 -14.27734375 59.25390625 C-16.625 58.875 -16.625 58.875 -18.625 56.875 C-19.18910256 50.66987179 -19.18910256 50.66987179 -17.25 47.9375 C-15.625 46.875 -15.625 46.875 -13.625 46.875 C-14.70648167 45.62339762 -15.79027922 44.37379619 -16.875 43.125 C-17.82826172 42.02478516 -17.82826172 42.02478516 -18.80078125 40.90234375 C-20.65182679 38.77282157 -20.65182679 38.77282157 -23.0625 36.6875 C-24.625 34.875 -24.625 34.875 -24.875 32.125 C-24.7925 31.3825 -24.71 30.64 -24.625 29.875 C-23.84125 29.730625 -23.0575 29.58625 -22.25 29.4375 C-19.66078982 28.99701075 -19.66078982 28.99701075 -17.625 27.875 C-15.62539988 27.835008 -13.62452758 27.83153201 -11.625 27.875 C-11.47804688 28.94427734 -11.47804688 28.94427734 -11.328125 30.03515625 C-10.35702308 36.25523149 -8.977779 40.5754461 -5.625 45.875 C-4.875 48.3125 -4.875 48.3125 -4.625 49.875 C-3.305 49.215 -1.985 48.555 -0.625 47.875 C-0.625 45.235 -0.625 42.595 -0.625 39.875 C-2.11 39.38 -2.11 39.38 -3.625 38.875 C-3.955 39.535 -4.285 40.195 -4.625 40.875 C-5.12 38.4 -5.12 38.4 -5.625 35.875 C-3.645 35.38 -3.645 35.38 -1.625 34.875 C-1.79 34.25625 -1.955 33.6375 -2.125 33 C-3.49391668 24.44427074 -2.24938639 16.31600786 -0.625 7.875 C-1.615 8.205 -2.605 8.535 -3.625 8.875 C-3.955 11.845 -4.285 14.815 -4.625 17.875 C-4.955 17.875 -5.285 17.875 -5.625 17.875 C-6.81092958 13.27952289 -7.25671108 8.58651182 -6.625 3.875 C-4.59223248 0.7129172 -3.7923624 -0.18058869 0 0 Z " fill="#CF1D43" transform="translate(280.625,130.125)"/>
<path d="M0 0 C8 0 8 0 10.00976562 1.46875 C10.70102539 2.47421875 10.70102539 2.47421875 11.40625 3.5 C11.921875 4.221875 12.4375 4.94375 12.96875 5.6875 C13.4740625 6.450625 13.979375 7.21375 14.5 8 C15.03625 8.763125 15.5725 9.52625 16.125 10.3125 C17.44054147 12.19184495 18.72357475 14.09387162 20 16 C20.33 10.72 20.66 5.44 21 0 C23.64 0 26.28 0 29 0 C29 10.89 29 21.78 29 33 C22 33 22 33 20.01196289 31.43945312 C19.5039917 30.72724609 18.99602051 30.01503906 18.47265625 29.28125 C17.90869141 28.51425781 17.34472656 27.74726563 16.76367188 26.95703125 C16.20228516 26.14621094 15.64089844 25.33539063 15.0625 24.5 C14.47404297 23.68917969 13.88558594 22.87835938 13.27929688 22.04296875 C11.83244861 20.04325977 10.41344459 18.02345751 9 16 C8.67 21.61 8.34 27.22 8 33 C5.36 33 2.72 33 0 33 C0 22.11 0 11.22 0 0 Z " fill="#FFFFFF" transform="translate(405,123)"/>
<path d="M0 0 C4.44496055 2.49696987 7.0635749 5.44072469 8.6875 10.3125 C9.22172104 16.28139281 9.22056722 21.24843698 5.6875 26.3125 C1.31786092 30.70601689 -2.37900661 32.46091288 -8.5625 32.625 C-14.09459905 32.55922868 -16.93899716 31.70419608 -21.3125 28.3125 C-25.05117205 23.49158078 -26.69195708 19.66474373 -26.58984375 13.50390625 C-25.89671455 8.02720932 -23.5152364 4.26978 -19.25 0.875 C-12.95037054 -2.47586674 -6.55478944 -3.04417188 0 0 Z M-15.25 8.3125 C-17.54547225 11.65136872 -18.06311472 13.41392329 -17.80078125 17.37890625 C-16.94389654 20.77216968 -15.06140261 22.29663808 -12.3125 24.3125 C-9.87439845 25.46724612 -9.87439845 25.46724612 -7.3125 25.3125 C-3.20253159 23.55108497 -1.00767676 21.4562654 0.6875 17.3125 C0.6875 13.09355729 0.35355308 11.07650206 -2.4375 7.875 C-7.29208674 5.23663764 -10.65585364 5.18457057 -15.25 8.3125 Z " fill="#FFFFFF" transform="translate(819.3125,123.6875)"/>
<path d="M0 0 C3.526875 -0.0825 7.05375 -0.165 10.6875 -0.25 C11.79053467 -0.28641602 12.89356934 -0.32283203 14.0300293 -0.36035156 C21.2395155 -0.44212018 21.2395155 -0.44212018 25.14453125 1.828125 C28.04066478 5.21812551 28.38347259 8.46240134 28.3671875 12.859375 C27.7090488 16.69618359 25.45465891 19.05440931 23 22 C23.433125 22.62648437 23.86625 23.25296875 24.3125 23.8984375 C24.869375 24.71570313 25.42625 25.53296875 26 26.375 C26.556875 27.18710938 27.11375 27.99921875 27.6875 28.8359375 C29 31 29 31 29 33 C25.81028144 33.65096297 23.16362158 33.85271459 20 33 C17.81378869 30.58093778 16.28791841 28.13058077 14.703125 25.28515625 C12.95792834 22.41175188 12.95792834 22.41175188 8 22 C8 25.63 8 29.26 8 33 C5.36 33 2.72 33 0 33 C0 22.11 0 11.22 0 0 Z M8 7 C8 9.64 8 12.28 8 15 C9.43655854 15.08131463 10.8744483 15.13933559 12.3125 15.1875 C13.11300781 15.22230469 13.91351562 15.25710937 14.73828125 15.29296875 C17.07336441 15.18214567 17.07336441 15.18214567 18.8046875 13.62109375 C20.24050656 12.0482267 20.24050656 12.0482267 19.8125 9.875 C19.1564434 7.81035868 19.1564434 7.81035868 17 7 C15.45976004 6.93049459 13.91665012 6.91547643 12.375 6.9375 C11.55773437 6.94652344 10.74046875 6.95554688 9.8984375 6.96484375 C9.27195312 6.97644531 8.64546875 6.98804688 8 7 Z " fill="#FFFFFF" transform="translate(569,123)"/>
<path d="M0 0 C3.99074874 1.35685457 6.18534829 3.39436834 8.125 7.0625 C8.79265204 9.79692784 8.97845453 12.22928754 9.125 15.0625 C10.445 15.3925 11.765 15.7225 13.125 16.0625 C12.465 16.7225 11.805 17.3825 11.125 18.0625 C10.939375 19.238125 10.939375 19.238125 10.75 20.4375 C9.9627225 23.74406548 8.57621977 24.75134993 6.125 27.0625 C4.76488391 29.04438345 3.42708796 31.04201869 2.125 33.0625 C1.125 34.0625 1.125 34.0625 -0.94140625 34.16015625 C-1.76511719 34.14855469 -2.58882812 34.13695312 -3.4375 34.125 C-4.26378906 34.11597656 -5.09007812 34.10695313 -5.94140625 34.09765625 C-6.57949219 34.08605469 -7.21757812 34.07445312 -7.875 34.0625 C-6.58200306 36.94687779 -5.21558637 38.93469421 -2.875 41.0625 C-3.80637592 42.35858947 -4.7453566 43.64921632 -5.6875 44.9375 C-6.47060547 46.01644531 -6.47060547 46.01644531 -7.26953125 47.1171875 C-8.875 49.0625 -8.875 49.0625 -11.875 51.0625 C-12.865 51.0625 -13.855 51.0625 -14.875 51.0625 C-14.875 50.4025 -14.875 49.7425 -14.875 49.0625 C-15.865 49.5575 -15.865 49.5575 -16.875 50.0625 C-17.205 51.0525 -17.535 52.0425 -17.875 53.0625 C-19.525 53.0625 -21.175 53.0625 -22.875 53.0625 C-22.545 51.7425 -22.215 50.4225 -21.875 49.0625 C-22.865 48.4025 -23.855 47.7425 -24.875 47.0625 C-24.545 46.0725 -24.215 45.0825 -23.875 44.0625 C-22.555 44.0625 -21.235 44.0625 -19.875 44.0625 C-20.37 42.5775 -20.37 42.5775 -20.875 41.0625 C-19.225 41.0625 -17.575 41.0625 -15.875 41.0625 C-15.215 42.3825 -14.555 43.7025 -13.875 45.0625 C-12.39 44.5675 -12.39 44.5675 -10.875 44.0625 C-11.24061315 41.41883571 -11.52543664 40.34061414 -13.65234375 38.6484375 C-14.36519531 38.24882812 -15.07804688 37.84921875 -15.8125 37.4375 C-18.19919292 36.07738825 -19.91830487 35.01919513 -21.875 33.0625 C-21.8125 30.5625 -21.8125 30.5625 -20.875 28.0625 C-18.3125 26.75 -18.3125 26.75 -15.875 26.0625 C-16.50148437 25.73636719 -17.12796875 25.41023438 -17.7734375 25.07421875 C-18.99933594 24.41873047 -18.99933594 24.41873047 -20.25 23.75 C-21.06210938 23.32074219 -21.87421875 22.89148438 -22.7109375 22.44921875 C-24.875 21.0625 -24.875 21.0625 -26.875 18.0625 C-26.875 16.7425 -26.875 15.4225 -26.875 14.0625 C-23.75 13.1875 -23.75 13.1875 -19.875 13.0625 C-17.39729648 14.80925411 -15.84594277 16.70698303 -13.875 19.0625 C-12.885 18.7325 -11.895 18.4025 -10.875 18.0625 C-10.68164062 18.90554687 -10.48828125 19.74859375 -10.2890625 20.6171875 C-9.89847656 22.26074219 -9.89847656 22.26074219 -9.5 23.9375 C-9.24476563 25.02804688 -8.98953125 26.11859375 -8.7265625 27.2421875 C-8.08593785 30.16658455 -8.08593785 30.16658455 -5.875 32.0625 C-3.46017587 32.56309916 -3.46017587 32.56309916 -0.875 32.0625 C1.54166667 30.47916667 1.54166667 30.47916667 3.125 28.0625 C3.45998301 25.39415034 3.45998301 25.39415034 3.125 23.0625 C1.475 23.7225 -0.175 24.3825 -1.875 25.0625 C-1.125 20.3125 -1.125 20.3125 1.125 18.0625 C2.445 17.4025 3.765 16.7425 5.125 16.0625 C5.125 13.0925 5.125 10.1225 5.125 7.0625 C3.805 6.4025 2.485 5.7425 1.125 5.0625 C1.62 5.495625 2.115 5.92875 2.625 6.375 C4.125 8.0625 4.125 8.0625 4.125 11.0625 C3.465 11.0625 2.805 11.0625 2.125 11.0625 C2.00125 11.701875 1.8775 12.34125 1.75 13 C1.54375 13.680625 1.3375 14.36125 1.125 15.0625 C0.135 15.5575 0.135 15.5575 -0.875 16.0625 C-5.7654802 6.89569292 -5.7654802 6.89569292 -5.875 3.0625 C-4.25289186 0.19995622 -3.28156612 0.07133839 0 0 Z " fill="#CF2043" transform="translate(240.875,228.9375)"/>
<path d="M0 0 C8.25 0 16.5 0 25 0 C25 2.31 25 4.62 25 7 C19.39 7 13.78 7 8 7 C8 8.65 8 10.3 8 12 C12.95 12 17.9 12 23 12 C23 14.64 23 17.28 23 20 C18.05 20 13.1 20 8 20 C8 21.65 8 23.3 8 25 C13.61 25 19.22 25 25 25 C25 27.64 25 30.28 25 33 C16.75 33 8.5 33 0 33 C0 22.11 0 11.22 0 0 Z " fill="#FFFFFF" transform="translate(527,123)"/>
<path d="M0 0 C2.64 0 5.28 0 8 0 C8.01981934 0.62044189 8.03963867 1.24088379 8.06005859 1.88012695 C8.15531845 4.69134537 8.26499302 7.50182166 8.375 10.3125 C8.4059375 11.28896484 8.436875 12.26542969 8.46875 13.27148438 C8.50742187 14.20927734 8.54609375 15.14707031 8.5859375 16.11328125 C8.6173584 16.97735596 8.6487793 17.84143066 8.68115234 18.73168945 C8.87188037 21.27742445 8.87188037 21.27742445 11 24 C13.52703937 25.0950504 14.5881926 25.15295704 17.1875 24.1875 C19.15022193 23.11878013 19.15022193 23.11878013 20 21 C20.15175549 19.40737934 20.24900325 17.80935144 20.31640625 16.2109375 C20.35830078 15.26992187 20.40019531 14.32890625 20.44335938 13.359375 C20.48267578 12.37453125 20.52199219 11.3896875 20.5625 10.375 C20.60568359 9.38242188 20.64886719 8.38984375 20.69335938 7.3671875 C20.79961069 4.91160162 20.90164964 2.45591297 21 0 C23.64 0 26.28 0 29 0 C29.08756305 3.70818297 29.14058015 7.41609763 29.1875 11.125 C29.21263672 12.17171875 29.23777344 13.2184375 29.26367188 14.296875 C29.31728107 19.94370979 29.29927547 24.17255655 26 29 C22.30881209 32.50662851 19.38791207 33.2842571 14.4375 33.4375 C10.16634142 33.25808819 7.26332334 32.96665759 4 30 C-1.05939378 24.38884238 -0.47298163 18.90620784 -0.25 11.625 C-0.23195313 10.50738281 -0.21390625 9.38976562 -0.1953125 8.23828125 C-0.14835555 5.4912997 -0.08269468 2.74609953 0 0 Z " fill="#FFFFFF" transform="translate(358,123)"/>
<path d="M0 0 C2.89453715 1.09200825 5.31031353 2.43509151 8 4 C6.68 6.31 5.36 8.62 4 11 C3.30132813 10.7834375 2.60265625 10.566875 1.8828125 10.34375 C0.97273437 10.0653125 0.06265625 9.786875 -0.875 9.5 C-1.77992188 9.2215625 -2.68484375 8.943125 -3.6171875 8.65625 C-5.90944647 7.91149206 -5.90944647 7.91149206 -8 8 C-7.67 8.99 -7.34 9.98 -7 11 C-4.07669691 12.21890201 -4.07669691 12.21890201 -0.625 13.25 C6.79653867 15.97095929 6.79653867 15.97095929 8.4375 19.375 C9.09687743 23.62432125 8.67025764 26.05211832 7 30 C5.04196922 32.55395319 4.13328122 32.95557293 1 34 C-5.79275439 34.73598227 -11.35103525 34.04129593 -17 30 C-17.33 29.34 -17.66 28.68 -18 28 C-16.68 26.35 -15.36 24.7 -14 23 C-13.360625 23.309375 -12.72125 23.61875 -12.0625 23.9375 C-8.07950896 25.31935403 -4.18349151 25.6536543 0 26 C-0.33 25.01 -0.66 24.02 -1 23 C-4.24646649 21.65401321 -7.54816429 20.63278623 -10.8984375 19.57421875 C-14.74626628 17.62122757 -15.57551625 16.01212509 -17 12 C-17 8.375 -17 8.375 -16 5 C-10.97308923 0.10198438 -6.82668761 -0.83305063 0 0 Z " fill="#FFFFFF" transform="translate(630,122)"/>
<path d="M0 0 C3.3 0 6.6 0 10 0 C12.31 6.27 14.62 12.54 17 19 C19.26157932 13.12233346 19.26157932 13.12233346 21.51733398 7.24243164 C21.79907471 6.51403076 22.08081543 5.78562988 22.37109375 5.03515625 C22.65911865 4.2862915 22.94714355 3.53742676 23.24389648 2.76586914 C24 1 24 1 25 0 C26.51928038 -0.07179964 28.04167482 -0.08392007 29.5625 -0.0625 C30.38878906 -0.05347656 31.21507812 -0.04445313 32.06640625 -0.03515625 C32.70449219 -0.02355469 33.34257812 -0.01195313 34 0 C32.39807838 4.18836226 30.79306257 8.37553225 29.1875 12.5625 C28.73568359 13.74392578 28.28386719 14.92535156 27.81835938 16.14257812 C25.64398457 21.8086497 23.45369197 27.44862382 21 33 C18.36 33 15.72 33 13 33 C11.14639021 28.46191729 9.29503581 23.9229238 7.44580078 19.38305664 C6.81589263 17.83755407 6.18535992 16.29230592 5.55419922 14.74731445 C4.64908641 12.5314221 3.74619576 10.31463589 2.84375 8.09765625 C2.55939087 7.4028566 2.27503174 6.70805695 1.98205566 5.99220276 C0 1.11387171 0 1.11387171 0 0 Z " fill="#FFFFFF" transform="translate(477,123)"/>
<path d="M0 0 C8.58 0 17.16 0 26 0 C26 2.31 26 4.62 26 7 C20.06 7 14.12 7 8 7 C8 8.98 8 10.96 8 13 C13.28 13 18.56 13 24 13 C24 15.31 24 17.62 24 20 C18.72 20 13.44 20 8 20 C8 24.29 8 28.58 8 33 C5.36 33 2.72 33 0 33 C0 22.11 0 11.22 0 0 Z " fill="#FFFFFF" transform="translate(842,123)"/>
<path d="M0 0 C3.51266272 -0.63609586 6.51433631 -0.86003313 10 0 C12.97765785 2.98289099 15.00621676 6.3029185 17 10 C17.40089844 9.278125 17.80179688 8.55625 18.21484375 7.8125 C22.80274686 0.32204594 22.80274686 0.32204594 26.46875 -0.6640625 C28.72105707 -0.62842473 30.79471594 -0.45005797 33 0 C31.74063761 3.69550602 29.95991316 6.55844256 27.67358398 9.70849609 C22.12498953 17.46973369 20.63222762 23.32023086 21 33 C18.36 33 15.72 33 13 33 C13.05542969 32.27039063 13.11085938 31.54078125 13.16796875 30.7890625 C13.23593313 19.77883235 8.13313004 12.53767319 2.10742188 3.6730957 C1 2 1 2 0 0 Z " fill="#FFFFFF" transform="translate(721,123)"/>
<path d="M0 0 C8.91 0 17.82 0 27 0 C27 2.31 27 4.62 27 7 C24.03 7 21.06 7 18 7 C18 15.58 18 24.16 18 33 C15.36 33 12.72 33 10 33 C10 24.42 10 15.84 10 7 C6.7 7 3.4 7 0 7 C0 4.69 0 2.38 0 0 Z " fill="#FFFFFF" transform="translate(681,123)"/>
<path d="M0 0 C0.33 0 0.66 0 1 0 C1.33 2.64 1.66 5.28 2 8 C2.66 6.35 3.32 4.7 4 3 C4.99 3 5.98 3 7 3 C7.12586037 10.55162242 7.12586037 10.55162242 6.5 12.78125 C5.75533005 16.0857229 5.89611887 19.38221299 5.9375 22.75 C5.94201172 23.44738281 5.94652344 24.14476562 5.95117188 24.86328125 C5.9628998 26.57555803 5.98083347 28.28779033 6 30 C5.01 30.33 4.02 30.66 3 31 C3 32.32 3 33.64 3 35 C3.639375 34.814375 4.27875 34.62875 4.9375 34.4375 C5.618125 34.293125 6.29875 34.14875 7 34 C8.89488952 35.89488952 8.18019112 38.57139146 8.23046875 41.08984375 C8 43 8 43 6 45 C5.01 45 4.02 45 3 45 C-1.37727172 37.6039202 -4.46043454 31.74825619 -4 23 C-6.31 23.33 -8.62 23.66 -11 24 C-11.33 23.34 -11.66 22.68 -12 22 C-5.25 20.875 -5.25 20.875 -3 22 C-2.87625 20.96875 -2.7525 19.9375 -2.625 18.875 C-1.83985476 12.57108024 -0.90948576 6.28693067 0 0 Z " fill="#FBCA4E" transform="translate(273,135)"/>
<path d="M0 0 C2.64 0 5.28 0 8 0 C8 10.89 8 21.78 8 33 C5.36 33 2.72 33 0 33 C0 22.11 0 11.22 0 0 Z " fill="#FFFFFF" transform="translate(656,123)"/>
<path d="M0 0 C2.64 0 5.28 0 8 0 C8 10.89 8 21.78 8 33 C5.36 33 2.72 33 0 33 C0 22.11 0 11.22 0 0 Z " fill="#FFFFFF" transform="translate(453,123)"/>
<path d="M0 0 C1.90180239 1.82256062 2.91735158 3.31126321 3.234375 5.953125 C3.27210185 11.34806482 2.67885033 16.65405364 2 22 C0.68 21.67 -0.64 21.34 -2 21 C-2.33 21.66 -2.66 22.32 -3 23 C-3.99 22.67 -4.98 22.34 -6 22 C-6.99 22.66 -7.98 23.32 -9 24 C-12.1875 24.125 -12.1875 24.125 -15 24 C-15.33 24.66 -15.66 25.32 -16 26 C-16.33970194 21.66880026 -16.6094606 18.16592463 -14.5625 14.25 C-12.19370037 12.17007838 -10.22121232 11.03045736 -7.4375 9.625 C-4.08429873 7.89876316 -2.40672498 6.69810007 -0.9375 3.1875 C-0.628125 2.135625 -0.31875 1.08375 0 0 Z " fill="#CE1A43" transform="translate(194,137)"/>
<path d="M0 0 C0.66 0 1.32 0 2 0 C2 7.59 2 15.18 2 23 C-4 23 -4 23 -5.875 21.6875 C-7 20 -7 20 -7 17 C-8.98 17.33 -10.96 17.66 -13 18 C-13 17.34 -13 16.68 -13 16 C-14.98 16.99 -14.98 16.99 -17 18 C-16.716064 14.68741337 -16.06719476 13.08609329 -14 10.4375 C-10.78107759 7.82212554 -7.85185278 6.49891101 -3.98828125 5.08984375 C-1.56077199 3.75924437 -0.98664076 2.53782996 0 0 Z " fill="#CE1B43" transform="translate(230,223)"/>
<path d="M0 0 C3.15207323 0.41113999 5.98104753 0.99368251 9 2 C8.73958333 4.01822917 8.47916667 6.03645833 8.21875 8.0546875 C7.9627515 10.00498344 7.9627515 10.00498344 8 12 C5.33333333 12.66666667 2.66666667 13.33333333 0 14 C-1.12148437 14.28037109 -1.12148437 14.28037109 -2.265625 14.56640625 C-2.83796875 14.70949219 -3.4103125 14.85257812 -4 15 C-4 14.34 -4 13.68 -4 13 C-4.7425 13.33 -5.485 13.66 -6.25 14 C-9 15 -9 15 -13 15 C-13 14.01 -13 13.02 -13 12 C-13.99 12 -14.98 12 -16 12 C-15.37240135 9.07120629 -14.41377341 6.63904371 -13 4 C-11.125 4.3125 -11.125 4.3125 -9 5 C-8.01 6.485 -8.01 6.485 -7 8 C-3.43230448 8.73606499 -3.43230448 8.73606499 0 9 C-0.350625 8.4225 -0.70125 7.845 -1.0625 7.25 C-2.15571363 4.62628728 -1.99056591 3.61149195 -1 1 C-0.67 0.67 -0.34 0.34 0 0 Z " fill="#CF1F43" transform="translate(211,252)"/>
<path d="M0 0 C0.66 0.33 1.32 0.66 2 1 C2.25287193 7.06892629 1.69832609 12.16200408 0 18 C-1.5778125 17.938125 -1.5778125 17.938125 -3.1875 17.875 C-6.90068247 17.75369624 -6.90068247 17.75369624 -9.625 19.1875 C-12 20 -12 20 -14.8125 18.625 C-15.534375 18.08875 -16.25625 17.5525 -17 17 C-15.43844682 11.53456385 -11.85586211 8.66839346 -7.12109375 5.90234375 C-6.50363281 5.56332031 -5.88617188 5.22429687 -5.25 4.875 C-1.82636742 3.22002444 -1.82636742 3.22002444 0 0 Z " fill="#CE1A43" transform="translate(270,139)"/>
<path d="M0 0 C0.495 1.485 0.495 1.485 1 3 C-7.34465091 17.664138 -25.33010345 36.8158027 -42.2734375 41.6484375 C-42.84320313 41.76445312 -43.41296875 41.88046875 -44 42 C-44 40.68 -44 39.36 -44 38 C-43.01773438 37.50693359 -43.01773438 37.50693359 -42.015625 37.00390625 C-26.93321695 29.14315968 -13.66554973 18.41492146 -4.4375 3.99609375 C-3 2 -3 2 0 0 Z " fill="#15130C" transform="translate(269,250)"/>
<path d="M0 0 C1.875 0.625 1.875 0.625 4 2 C4.185625 2.969375 4.37125 3.93875 4.5625 4.9375 C5.67535467 8.20384256 5.67535467 8.20384256 8.56640625 9.05859375 C11.36658168 9.80602244 14.15345218 10.45734707 17 11 C17.33 13.64 17.66 16.28 18 19 C13.1725201 17.58707905 9.2837641 15.57025846 5 13 C5 12.34 5 11.68 5 11 C4.236875 11.495 3.47375 11.99 2.6875 12.5 C0 14 0 14 -3 14 C-3.12375 13.195625 -3.2475 12.39125 -3.375 11.5625 C-3.684375 10.2940625 -3.684375 10.2940625 -4 9 C-4.66 8.67 -5.32 8.34 -6 8 C-5.67 6.68 -5.34 5.36 -5 4 C-3.68 4 -2.36 4 -1 4 C-0.67 2.68 -0.34 1.36 0 0 Z " fill="#D12744" transform="translate(238,149)"/>
<path d="M0 0 C3.625 0.375 3.625 0.375 7 1 C6.566875 1.804375 6.566875 1.804375 6.125 2.625 C4.85696707 5.03820974 4.85696707 5.03820974 4.4375 8.0625 C3 11 3 11 0.87109375 12.05078125 C-1.40556426 12.80254156 -3.6663411 13.45259853 -6 14 C-5.67 13.01 -5.34 12.02 -5 11 C-5.86625 11.495 -5.86625 11.495 -6.75 12 C-9 13 -9 13 -13 13 C-14.8125 11.75 -14.8125 11.75 -16 10 C-15.6875 7.8125 -15.6875 7.8125 -15 6 C-14.34 6 -13.68 6 -13 6 C-13.33 5.01 -13.66 4.02 -14 3 C-12.35 2.67 -10.7 2.34 -9 2 C-8.34 3.98 -7.68 5.96 -7 8 C-5.35 8 -3.7 8 -2 8 C-2.04125 7.05125 -2.0825 6.1025 -2.125 5.125 C-2 2 -2 2 0 0 Z " fill="#CF2043" transform="translate(176,167)"/>
<path d="M0 0 C1.9375 0.8125 1.9375 0.8125 4 2 C4.33 2.99 4.66 3.98 5 5 C7.70183055 6.35091528 10.11808206 6.33858058 13.125 6.5625 C14.76855469 6.68818359 14.76855469 6.68818359 16.4453125 6.81640625 C17.28835937 6.87699219 18.13140625 6.93757812 19 7 C19.33 9.31 19.66 11.62 20 14 C16.26512223 13.5020163 14.18762365 13.12508244 11 11 C7.36060068 11.31730524 7.36060068 11.31730524 4 12 C4 11.01 4 10.02 4 9 C3.34 9 2.68 9 2 9 C2 9.99 2 10.98 2 12 C0.68 12 -0.64 12 -2 12 C-2 11.01 -2 10.02 -2 9 C-2.99 9 -3.98 9 -5 9 C-4.5206753 4.68607774 -3.2542015 2.83430453 0 0 Z " fill="#D12544" transform="translate(194,236)"/>
<path d="M0 0 C3 1 3 1 4 3 C4.33 2.34 4.66 1.68 5 1 C5.99 1 6.98 1 8 1 C8.08636719 1.59167969 8.17273438 2.18335938 8.26171875 2.79296875 C9.24497236 8.3226427 10.36877555 11.44580449 15 15 C17.66533035 16.319018 17.66533035 16.319018 20 17 C19.67 18.32 19.34 19.64 19 21 C14.75651873 21.36372697 12.37287736 20.62334906 9 18 C8.1875 15.8125 8.1875 15.8125 8 14 C7.01 14 6.02 14 5 14 C4.6596875 13.1028125 4.6596875 13.1028125 4.3125 12.1875 C2.66188867 9.43648112 0.8027919 8.47515363 -2 7 C-1.34 4.69 -0.68 2.38 0 0 Z " fill="#D02043" transform="translate(159,132)"/>
<path d="M0 0 C1.2065625 0.0309375 1.2065625 0.0309375 2.4375 0.0625 C2.7675 1.7125 3.0975 3.3625 3.4375 5.0625 C2.7775 5.0625 2.1175 5.0625 1.4375 5.0625 C1.1075 7.3725 0.7775 9.6825 0.4375 12.0625 C-1.6874266 12.23009984 -3.81244376 12.39655201 -5.9375 12.5625 C-7.12085938 12.6553125 -8.30421875 12.748125 -9.5234375 12.84375 C-11.20036843 12.96445454 -12.88123056 13.0625 -14.5625 13.0625 C-14.5625 12.0725 -14.5625 11.0825 -14.5625 10.0625 C-15.5525 9.7325 -16.5425 9.4025 -17.5625 9.0625 C-16.8125 6.125 -16.8125 6.125 -15.5625 3.0625 C-13.4375 2.1875 -13.4375 2.1875 -11.5625 2.0625 C-10.964375 3.0525 -10.36625 4.0425 -9.75 5.0625 C-9.028125 6.0525 -8.30625 7.0425 -7.5625 8.0625 C-6.5725 8.0625 -5.5825 8.0625 -4.5625 8.0625 C-4.418125 6.928125 -4.27375 5.79375 -4.125 4.625 C-3.40786082 0.08311856 -3.40786082 0.08311856 0 0 Z " fill="#D02243" transform="translate(259.5625,172.9375)"/>
<path d="M0 0 C0 0.99 0 1.98 0 3 C-0.66 3 -1.32 3 -2 3 C-2.0928125 4.1446875 -2.0928125 4.1446875 -2.1875 5.3125 C-3 8 -3 8 -5.0625 9.8125 C-8.94832382 11.38336495 -11.82713017 11.21217982 -16 11 C-16 10.34 -16 9.68 -16 9 C-14.68 8.67 -13.36 8.34 -12 8 C-11.87625 7.195625 -11.7525 6.39125 -11.625 5.5625 C-11.41875 4.716875 -11.2125 3.87125 -11 3 C-10.34 2.67 -9.68 2.34 -9 2 C-9.99 1.67 -10.98 1.34 -12 1 C-12 1.66 -12 2.32 -12 3 C-12.99 3 -13.98 3 -15 3 C-14.7215625 3.9590625 -14.7215625 3.9590625 -14.4375 4.9375 C-14.293125 5.618125 -14.14875 6.29875 -14 7 C-15 8 -15 8 -17.4375 8.25 C-18.283125 8.1675 -19.12875 8.085 -20 8 C-20.66 7.01 -21.32 6.02 -22 5 C-20.35 5 -18.7 5 -17 5 C-17 3.68 -17 2.36 -17 1 C-11.2364368 -1.64812363 -6.09067424 -0.8019749 0 0 Z " fill="#D02043" transform="translate(271,133)"/>
<path d="M0 0 C1.49080078 0.02707031 1.49080078 0.02707031 3.01171875 0.0546875 C3.77097656 0.07789063 4.53023437 0.10109375 5.3125 0.125 C5.003125 0.888125 4.69375 1.65125 4.375 2.4375 C3.63356407 4.31289677 2.95021783 6.21184652 2.3125 8.125 C0.3515625 9.328125 0.3515625 9.328125 -2.0625 10.375 C-3.24972656 10.90867188 -3.24972656 10.90867188 -4.4609375 11.453125 C-6.6875 12.125 -6.6875 12.125 -9.6875 11.125 C-9.3575 10.50625 -9.0275 9.8875 -8.6875 9.25 C-7.54556765 7.21481656 -7.54556765 7.21481656 -7.6875 5.125 C-8.6775 5.62 -8.6775 5.62 -9.6875 6.125 C-9.3575 6.785 -9.0275 7.445 -8.6875 8.125 C-10.9975 8.455 -13.3075 8.785 -15.6875 9.125 C-16.0175 8.465 -16.3475 7.805 -16.6875 7.125 C-15.82125 7.00125 -15.82125 7.00125 -14.9375 6.875 C-12.05345852 5.91365284 -10.75068353 4.32129215 -8.6875 2.125 C-5.26655758 -0.15562828 -4.00562778 -0.09425007 0 0 Z " fill="#D22844" transform="translate(225.6875,217.875)"/>
<path d="M0 0 C0.99 0 1.98 0 3 0 C3.33 1.19625 3.66 2.3925 4 3.625 C5.88604287 8.79551754 9.46433636 11.15578337 14 14 C13.01 15.485 13.01 15.485 12 17 C9.61435923 16.42415568 7.33317216 15.77772405 5 15 C4.33333333 13.66666667 3.66666667 12.33333333 3 11 C2.01 10.67 1.02 10.34 0 10 C0 10.66 0 11.32 0 12 C-1.32 12 -2.64 12 -4 12 C-3.814375 11.2575 -3.62875 10.515 -3.4375 9.75 C-3.00796892 7.05009037 -3.14877026 5.55368923 -4 3 C-2.68 3 -1.36 3 0 3 C0 2.01 0 1.02 0 0 Z " fill="#D02043" transform="translate(242,134)"/>
<path d="M0 0 C1.65 0.33 3.3 0.66 5 1 C5.33 2.32 5.66 3.64 6 5 C9.9813783 6.3271261 13.85045227 6.06915913 18 6 C18 7.65 18 9.3 18 11 C17.07767578 10.98259766 17.07767578 10.98259766 16.13671875 10.96484375 C14.92435547 10.95130859 14.92435547 10.95130859 13.6875 10.9375 C12.88699219 10.92589844 12.08648437 10.91429687 11.26171875 10.90234375 C8.83138666 10.90342145 8.83138666 10.90342145 6 12 C6 11.34 6 10.68 6 10 C4.35 10.33 2.7 10.66 1 11 C-0.5625 8.6875 -0.5625 8.6875 -2 6 C-1.67 5.01 -1.34 4.02 -1 3 C-0.34 3 0.32 3 1 3 C0.67 2.01 0.34 1.02 0 0 Z " fill="#D02143" transform="translate(158,150)"/>
<path d="M0 0 C-0.33926585 8.09149055 -0.33926585 8.09149055 -2.5 11.0625 C-6.30055378 12.48770767 -9.98821739 12.231449 -14 12 C-13.34 11.608125 -12.68 11.21625 -12 10.8125 C-9.70833333 9.14583333 -9.70833333 9.14583333 -9.75 6.3125 C-9.8325 5.549375 -9.915 4.78625 -10 4 C-11.65 4.33 -13.3 4.66 -15 5 C-14 2 -14 2 -12 0.8125 C-7.96195446 -0.28113733 -4.15684292 -0.16301345 0 0 Z " fill="#CE1C43" transform="translate(193,132)"/>
<path d="M0 0 C0.99 0.33 1.98 0.66 3 1 C3.70211894 2.65204456 4.36971413 4.31923769 5 6 C5.66 6.33 6.32 6.66 7 7 C6.67 8.32 6.34 9.64 6 11 C4.35 11.33 2.7 11.66 1 12 C1 11.01 1 10.02 1 9 C0.01 9.66 -0.98 10.32 -2 11 C-3.32 11 -4.64 11 -6 11 C-6 8 -6 5 -6 2 C-4.7934375 1.7834375 -4.7934375 1.7834375 -3.5625 1.5625 C-1.07896294 1.25864751 -1.07896294 1.25864751 0 0 Z " fill="#D02443" transform="translate(206,227)"/>
<path d="M0 0 C0.99 0 1.98 0 3 0 C3.625 1.875 3.625 1.875 4 4 C3.34 4.66 2.68 5.32 2 6 C3.8161982 5.57811541 5.62794073 5.13700835 7.4375 4.6875 C8.95150391 4.32205078 8.95150391 4.32205078 10.49609375 3.94921875 C11.32238281 3.63597656 12.14867187 3.32273438 13 3 C13.33 2.01 13.66 1.02 14 0 C13.8359375 2.34375 13.8359375 2.34375 13 5 C10.6015625 6.40625 10.6015625 6.40625 7.625 7.5 C3.02349318 9.19976505 1.17824315 10.55460581 -1 15 C-1.66 14.67 -2.32 14.34 -3 14 C-2.67 13.01 -2.34 12.02 -2 11 C-2.99 10.67 -3.98 10.34 -5 10 C-5 8.35 -5 6.7 -5 5 C-3.02 4.01 -1.04 3.02 1 2 C0.67 1.34 0.34 0.68 0 0 Z " fill="#F9C34D" transform="translate(215,223)"/>
<path d="M0 0 C0.99 0.33 1.98 0.66 3 1 C2 6 1 11 0 16 C-0.99 16 -1.98 16 -3 16 C-3 14.68 -3 13.36 -3 12 C-4.65 11.67 -6.3 11.34 -8 11 C-7.67 10.01 -7.34 9.02 -7 8 C-6.01 8 -5.02 8 -4 8 C-4.20625 7.21625 -4.4125 6.4325 -4.625 5.625 C-4.74875 4.75875 -4.8725 3.8925 -5 3 C-4.34 2.34 -3.68 1.68 -3 1 C-2.01 1.33 -1.02 1.66 0 2 C0 1.34 0 0.68 0 0 Z " fill="#D32C44" transform="translate(210,149)"/>
<path d="M0 0 C1.32 0 2.64 0 4 0 C4.625 2.375 4.625 2.375 5 5 C3 7 3 7 0.87109375 7.046875 C0.06800781 6.94890625 -0.73507813 6.8509375 -1.5625 6.75 C-2.77099609 6.61851562 -2.77099609 6.61851562 -4.00390625 6.484375 C-4.66261719 6.32453125 -5.32132813 6.1646875 -6 6 C-6.33 5.34 -6.66 4.68 -7 4 C-4.69 3.01 -2.38 2.02 0 1 C0 0.67 0 0.34 0 0 Z " fill="#F5B34C" transform="translate(179,136)"/>
<path d="M0 0 C0.83796731 4.65537393 1.0161692 8.37078475 0 13 C-0.33 13 -0.66 13 -1 13 C-1.33 10.69 -1.66 8.38 -2 6 C-2.99 5.67 -3.98 5.34 -5 5 C-5.33 5.66 -5.66 6.32 -6 7 C-6 5.68 -6 4.36 -6 3 C-1.82142857 0 -1.82142857 0 0 0 Z " fill="#D53545" transform="translate(282,164)"/>
<path d="M0 0 C0.33 0.66 0.66 1.32 1 2 C-0.07826365 3.27513763 -1.16285519 4.54492569 -2.25 5.8125 C-2.85328125 6.52019531 -3.4565625 7.22789062 -4.078125 7.95703125 C-5.92370398 9.91889671 -7.79945332 11.45669625 -10 13 C-10.66 12.67 -11.32 12.34 -12 12 C-8.04 8.04 -4.08 4.08 0 0 Z " fill="#181818" transform="translate(260,263)"/>
<path d="M0 0 C0.66 0.99 1.32 1.98 2 3 C1.05125 3.2475 0.1025 3.495 -0.875 3.75 C-4.08693191 4.6857077 -4.08693191 4.6857077 -5.375 7.125 C-5.58125 7.74375 -5.7875 8.3625 -6 9 C-6.20086443 5.28400809 -6.1519437 4.22791555 -4 1 C-4.99 0.67 -5.98 0.34 -7 0 C-4.27584084 -1.36207958 -2.87220643 -0.86166193 0 0 Z " fill="#F6B64C" transform="translate(224,253)"/>
<path d="M0 0 C0.99 0.33 1.98 0.66 3 1 C3.042721 2.66611905 3.04063832 4.33382885 3 6 C2 7 2 7 -0.4375 7.25 C-1.283125 7.1675 -2.12875 7.085 -3 7 C-3.66 6.01 -4.32 5.02 -5 4 C-3.35 4 -1.7 4 0 4 C0 2.68 0 1.36 0 0 Z " fill="#D53444" transform="translate(254,134)"/>
<path d="M0 0 C4 0 4 0 6 1 C4.88671875 2.48828125 4.88671875 2.48828125 3 4 C0.08203125 4.29296875 0.08203125 4.29296875 -3.1875 4.1875 C-4.27417969 4.16042969 -5.36085937 4.13335937 -6.48046875 4.10546875 C-7.31191406 4.07066406 -8.14335937 4.03585938 -9 4 C-9 3.67 -9 3.34 -9 3 C-8.43410156 2.86722656 -7.86820313 2.73445312 -7.28515625 2.59765625 C-6.18494141 2.33275391 -6.18494141 2.33275391 -5.0625 2.0625 C-4.33160156 1.88847656 -3.60070312 1.71445313 -2.84765625 1.53515625 C-1.00030102 1.16112431 -1.00030102 1.16112431 0 0 Z " fill="#F2A74C" transform="translate(188,158)"/>
<path d="M0 0 C2.9375 0.375 2.9375 0.375 6 1 C6.33 1.66 6.66 2.32 7 3 C5.02 3.66 3.04 4.32 1 5 C0.67 6.65 0.34 8.3 0 10 C-1.125 8.3125 -1.125 8.3125 -2 6 C-1.125 3.3125 -1.125 3.3125 0 1 C0 0.67 0 0.34 0 0 Z " fill="#F9C04D" transform="translate(182,167)"/>
<path d="M0 0 C0.33 1.32 0.66 2.64 1 4 C-3.455 4.495 -3.455 4.495 -8 5 C-7.67 4.01 -7.34 3.02 -7 2 C-4.56723614 0.81480735 -2.71982714 0 0 0 Z " fill="#D94646" transform="translate(186,132)"/>
<path d="M0 0 C0.99 0 1.98 0 3 0 C3.93065133 2.60582371 4.14917407 3.64198224 3.0625 6.25 C2.5365625 7.11625 2.5365625 7.11625 2 8 C1.34 8 0.68 8 0 8 C0 7.01 0 6.02 0 5 C-1.32 4.67 -2.64 4.34 -4 4 C-2.35 3.34 -0.7 2.68 1 2 C0.67 1.34 0.34 0.68 0 0 Z " fill="#F2A74C" transform="translate(215,223)"/>
<path d="M0 0 C0.66 0 1.32 0 2 0 C2 0.66 2 1.32 2 2 C3.98 1.67 5.96 1.34 8 1 C8.66 2.65 9.32 4.3 10 6 C9.0925 5.690625 8.185 5.38125 7.25 5.0625 C4.83436662 4.2727737 2.47219715 3.57050703 0 3 C0 2.01 0 1.02 0 0 Z " fill="#F0A04B" transform="translate(215,239)"/>
<path d="M0 0 C1.32 0.33 2.64 0.66 4 1 C3.01 1.33 2.02 1.66 1 2 C1 3.65 1 5.3 1 7 C0.01 6.67 -0.98 6.34 -2 6 C-2.6875 3.9375 -2.6875 3.9375 -3 2 C-2.01 2 -1.02 2 0 2 C0 1.34 0 0.68 0 0 Z " fill="#F09F4B" transform="translate(259,134)"/>
<path d="M0 0 C0 0.66 0 1.32 0 2 C-2.64 2.33 -5.28 2.66 -8 3 C-8.33 2.34 -8.66 1.68 -9 1 C-5.8035914 -0.06546953 -3.34252724 -0.07427838 0 0 Z " fill="#D22844" transform="translate(181,139)"/>
</svg>
