<svg xmlns="http://www.w3.org/2000/svg" width="625.572" height="216"><script/><path fill="none" d="M0 0h573.75v216H0z"/><g fill="#ba0c2f"><path d="M532.816 98.155c-10.968 0-17.708 10.928-17.708 21.891 0 1.72.195 3.013.422 4.249 16.66-3.203 24.792-12.084 24.792-19.127 0-4.44-2.803-7.013-7.506-7.013z"/><path d="M384.656 119.567c.708-10.055 2.65-20.155 4.497-28.16 5.664-24.56 15.239-43.266 28.762-43.266 9.406 0 12.899 6.533 12.976 14.258.205 20.36-16.335 45.253-36.024 60.9-.258 9.784 2.881 14.296 8.622 14.296 10.314 0 20.595-10.51 29.454-31.672 1.209-2.887 2.358-6.206 3.63-9.403 1.77-4.456 11.034-1.875 9.708 2.555-2.843 9.474-7.392 22.01-7.392 30.293 0 5.54 2.788 7.846 6.896 7.786 5.713-.085 10.394-4.18 13.736-8.175 0 0 2.352-11.779 3.037-15.034 9.66-45.875 20.813-65.818 35.436-65.818 8.736 0 13.172 5.369 13.172 14.044 0 15.91-10.958 34.189-32.036 59.436 6.572 2.297 13.814 4.018 23.04 4.018.544 0 1.816-.005 2.344-.014-.197-1.26-.387-3.566-.387-5.482 0-17.84 12.765-30.562 28.518-30.562 10.304 0 18.312 4.819 18.312 15.408 0 13.258-14.057 23.77-31.784 27.427 2.761 3.278 8.18 5.626 15.764 5.626 17.008 0 30.118-8.354 38.813-16.483V0H357.749v133.933c9.974-3.71 19.2-8.778 26.907-14.366zm63.537-49.323c4.046 0 7.191 3.292 7.011 7.338-.18 4.047-3.62 7.339-7.666 7.339s-7.191-3.292-7.01-7.339c.18-4.046 3.618-7.338 7.665-7.338z"/><path d="M497.88 56.724c-5.195 0-15.692 15.04-24.811 58.244 15.438-19.522 27.96-41.606 27.96-53.085 0-3.035-.881-5.16-3.15-5.16zM534.948 147.189c-14.819 0-23.173-5.754-27.635-13.041a96.49 96.49 0 0 1-4.729.112c-7.801 0-14.856-1.067-19.924-2.738 4.022 8.566 6.63 19.784 6.604 29.993-.047 19.418-7.035 32.175-20.373 32.175-9.5 0-14.913-6.935-15.102-21.24-.138-10.427 1.248-19.075 3.31-30.791-3.231 2.692-7.752 4.635-13.181 4.655-9.804.036-15.26-6.197-15.652-14.794-7.627 10.283-16.8 15.233-26.372 15.233-10.435 0-16.003-6.704-17.105-16.714-7.48 4.747-16.606 9.713-27.04 13.434V216H573.75v-82.697c-11.507 9.149-24.83 13.886-38.802 13.886zM417.945 56.734c-5.62 0-15.538 16.796-21.71 53.713 17.589-17.169 24.76-39.38 24.76-48.207 0-4.094-1.083-5.506-3.05-5.506z"/><path d="M469.723 131.227c-2.291 10.632-5.428 29.353-5.428 41.236 0 6.907 1.5 11.294 5.512 11.294 6.956 0 9.032-12.246 9.032-21.31 0-11.75-3.043-24.124-7.72-32.67z"/></g><path fill="#838271" d="M11.417 121.605c0 2.693.287 5.222.865 7.586.577 2.365 1.496 4.42 2.759 6.166 1.26 1.746 2.902 3.13 4.922 4.148 2.018 1.02 4.435 1.528 7.247 1.528 2.032 0 3.855-.304 5.473-.911 1.617-.607 2.99-1.303 4.12-2.09a17.922 17.922 0 0 0 3.61-3c.606.679 1.382 1.716 2.33 3.114.948 1.399 1.422 2.692 1.422 3.879a3.11 3.11 0 0 1-.314 1.172c-.35.744-1.032 1.539-2.045 2.386-1.44 1.25-3.514 2.324-6.22 3.223-2.709.9-5.993 1.35-9.856 1.35-2.5 0-5.24-.351-8.222-1.05-2.982-.702-5.765-2.083-8.349-4.148-2.586-2.063-4.757-4.94-6.518-8.633C.879 132.632 0 127.757 0 121.697c0-5.616.922-10.246 2.765-13.888 1.844-3.643 4.11-6.507 6.799-8.595 2.688-2.087 5.549-3.547 8.585-4.383 3.033-.834 5.703-1.252 8.008-1.252 2.821 0 5.372.297 7.653.894 2.28.597 4.218 1.367 5.822 2.3 1.52.884 2.67 1.795 3.437 2.741.767.948 1.15 1.903 1.15 2.869 0 1.848-1.388 4.548-3.127 6.857-1.245-1.423-3.073-2.847-5.482-4.272-2.41-1.423-5.093-2.136-8.047-2.136-2.862 0-5.307.474-7.34 1.42-2.032.946-3.708 2.274-5.024 3.983-1.317 1.71-2.277 3.71-2.879 6.003-.603 2.292-.903 4.748-.903 7.367zM99.456 147.19c-.844-1.127-1.425-2.772-1.745-4.942-.35-2.342-.521-5.596-.521-9.76v-18.835c0-3.307-.333-6.23-.994-8.769-.663-2.538-1.813-4.652-3.45-6.345-1.637-1.69-3.783-2.96-6.432-3.807-2.652-.845-5.965-1.269-9.941-1.269-2.343 0-4.726.196-7.146.587-2.421.392-4.627.938-6.618 1.641-1.992.704-3.613 1.507-4.862 2.405-1.25.9-1.874 1.858-1.874 2.873 0 .673.244 1.699.734 3.076a15.465 15.465 0 0 0 1.944 3.78 32.573 32.573 0 0 1 7.287-3.857c2.509-.952 5.586-1.491 9.23-1.491 4.39 0 7.358.838 8.907 2.512 1.547 1.675 2.321 4.116 2.321 7.323v1.797a22.088 22.088 0 0 0-2.377-.114h-2.377c-2.793.076-5.87.38-9.227.907-3.359.53-6.509 1.514-9.452 2.95-2.943 1.438-5.416 3.404-7.415 5.9-2 2.495-3 5.71-3 9.642 0 3.249.545 5.918 1.639 8.006 1.092 2.089 2.476 3.753 4.155 4.99a14.81 14.81 0 0 0 5.62 2.552c2.066.464 4.114.696 6.145.696 4.205 0 7.598-.654 10.181-1.96 2.582-1.305 4.795-2.893 6.64-4.76.28 2.232 1.23 3.783 2.848 4.655 1.617.87 3.516 1.307 5.696 1.307.681 0 1.338-.034 1.972-.102a13.784 13.784 0 0 0 1.607-.256.844.844 0 0 0 .505-1.333zm-13.017-14.308c0 .884-.376 1.806-1.127 2.763-.751.958-1.77 1.842-3.058 2.652-1.288.812-2.773 1.492-4.453 2.045a16.907 16.907 0 0 1-5.312.829c-3.505 0-5.901-.846-7.189-2.542-1.288-1.694-1.931-3.647-1.931-5.858 0-2.357.607-4.255 1.824-5.692 1.215-1.436 2.79-2.559 4.721-3.37 1.932-.81 4.078-1.363 6.438-1.658a56.45 56.45 0 0 1 6.975-.442h3.112zM157.723 148.5h-11.15v-30.657c0-2.11-.075-4.078-.224-5.903-.149-1.822-.547-3.383-1.192-4.679-.647-1.295-1.69-2.303-3.13-3.023-1.44-.72-3.452-1.08-6.034-1.08-3.635 0-6.754.733-9.356 2.417-2.603 1.687-3.904 3.89-3.904 6.39V148.5h-11.179V94.582a18.063 18.063 0 0 1 1.267-.104c.26-.01.568-.015.926-.015 1.977 0 3.761.457 5.354 1.368 1.59.912 2.558 2.48 2.902 4.699 1.742-1.836 4.109-3.474 7.102-4.911 2.991-1.438 6.533-2.156 10.624-2.156 5.162 0 9.11 1.152 11.844 3.456 2.733 2.305 4.516 5.185 5.353 8.642.379 1.538.606 3.246.683 5.128.075 1.883.114 3.707.114 5.473zM215.72 147.19c-.844-1.127-1.425-2.772-1.746-4.942-.35-2.342-.52-5.596-.52-9.76v-18.835c0-3.307-.333-6.23-.994-8.769-.664-2.538-1.813-4.652-3.45-6.345-1.638-1.69-3.783-2.96-6.433-3.807-2.651-.845-5.964-1.269-9.94-1.269-2.343 0-4.726.196-7.146.587-2.422.392-4.627.938-6.619 1.641-1.99.704-3.613 1.507-4.86 2.405-1.251.9-1.875 1.858-1.875 2.873 0 .673.244 1.699.734 3.076a15.467 15.467 0 0 0 1.944 3.78 32.575 32.575 0 0 1 7.287-3.857c2.508-.952 5.586-1.491 9.23-1.491 4.389 0 7.358.838 8.907 2.512 1.547 1.675 2.321 4.116 2.321 7.323v1.797a22.09 22.09 0 0 0-2.377-.114h-2.378c-2.793.076-5.868.38-9.226.907-3.359.53-6.509 1.514-9.452 2.95-2.944 1.438-5.416 3.404-7.415 5.9-2 2.495-3 5.71-3 9.642 0 3.249.545 5.918 1.638 8.006 1.092 2.089 2.477 3.753 4.156 4.99a14.809 14.809 0 0 0 5.619 2.552c2.067.464 4.115.696 6.146.696 4.205 0 7.598-.654 10.181-1.96 2.582-1.305 4.795-2.893 6.64-4.76.28 2.232 1.23 3.783 2.848 4.655 1.617.87 3.515 1.307 5.696 1.307.681 0 1.338-.034 1.972-.102a13.785 13.785 0 0 0 1.607-.256.844.844 0 0 0 .504-1.333zm-13.018-14.308c0 .884-.375 1.806-1.126 2.763-.751.958-1.77 1.842-3.058 2.652-1.288.812-2.773 1.492-4.453 2.045a16.907 16.907 0 0 1-5.312.829c-3.506 0-5.902-.846-7.19-2.542-1.287-1.694-1.93-3.647-1.93-5.858 0-2.357.606-4.255 1.824-5.692 1.215-1.436 2.79-2.559 4.721-3.37 1.931-.81 4.077-1.363 6.438-1.658a56.45 56.45 0 0 1 6.975-.442h3.111zM275.45 147.19c-.843-1.127-1.424-2.772-1.744-4.942-.35-2.342-.521-5.596-.521-9.76v-55.52c0-1.94-.223-3.512-.668-4.716-.445-1.203-1.055-2.154-1.826-2.853a5.898 5.898 0 0 0-2.628-1.397c-.98-.233-1.946-.35-2.895-.35-.492 0-1.05.014-1.675.038-.626.025-1.095.062-1.407.11v31.148c-1.183-1.125-2.999-2.267-5.447-3.43-2.451-1.162-5.575-1.744-9.376-1.744-2.87 0-5.648.564-8.333 1.693-2.686 1.128-5.04 2.84-7.063 5.134-2.025 2.296-3.642 5.247-4.856 8.858-1.214 3.611-1.821 7.9-1.821 12.864 0 5.234.62 9.615 1.861 13.142 1.24 3.528 2.909 6.354 5.003 8.477 2.094 2.125 4.48 3.641 7.155 4.552a25.653 25.653 0 0 0 8.319 1.365c3.986 0 7.263-.786 9.833-2.358 2.568-1.571 4.388-3.098 5.463-4.583.28 2.232 1.229 3.783 2.847 4.655 1.617.87 3.516 1.307 5.696 1.307.681 0 1.339-.034 1.972-.102a13.784 13.784 0 0 0 1.607-.256.844.844 0 0 0 .505-1.333zm-13.364-13.35c0 .876-.283 1.752-.849 2.629-.567.877-1.38 1.644-2.44 2.301-1.062.658-2.319 1.206-3.768 1.644-1.451.439-3.025.658-4.723.658-2.547 0-4.688-.494-6.42-1.48-1.735-.986-3.131-2.373-4.192-4.164-1.062-1.79-1.805-3.89-2.23-6.301-.424-2.41-.636-5.04-.636-7.89 0-6.137 1.167-10.775 3.502-13.917 2.335-3.14 5.519-4.712 9.552-4.712 1.698 0 3.218.202 4.563.603 1.343.402 2.53.895 3.555 1.479 1.025.585 1.874 1.205 2.547 1.863.62.606 1.13 1.115 1.54 1.535zM331.604 147.19c-.844-1.127-1.425-2.772-1.745-4.942-.35-2.342-.52-5.596-.52-9.76v-18.835c0-3.307-.333-6.23-.995-8.769-.663-2.538-1.813-4.652-3.45-6.345-1.637-1.69-3.783-2.96-6.432-3.807-2.652-.845-5.965-1.269-9.941-1.269-2.343 0-4.726.196-7.146.587-2.421.392-4.627.938-6.618 1.641-1.992.704-3.613 1.507-4.862 2.405-1.25.9-1.874 1.858-1.874 2.873 0 .673.244 1.699.734 3.076a15.465 15.465 0 0 0 1.944 3.78 32.575 32.575 0 0 1 7.287-3.857c2.509-.952 5.586-1.491 9.23-1.491 4.39 0 7.358.838 8.907 2.512 1.547 1.675 2.321 4.116 2.321 7.323v1.797a22.09 22.09 0 0 0-2.377-.114h-2.377c-2.793.076-5.87.38-9.226.907-3.36.53-6.51 1.514-9.453 2.95-2.943 1.438-5.416 3.404-7.415 5.9-2 2.495-3 5.71-3 9.642 0 3.249.545 5.918 1.639 8.006 1.092 2.089 2.476 3.753 4.155 4.99a14.81 14.81 0 0 0 5.62 2.552c2.066.464 4.115.696 6.145.696 4.205 0 7.598-.654 10.181-1.96 2.582-1.305 4.795-2.893 6.64-4.76.28 2.232 1.23 3.783 2.848 4.655 1.617.87 3.516 1.307 5.696 1.307.681 0 1.339-.034 1.972-.102a13.787 13.787 0 0 0 1.607-.256.844.844 0 0 0 .505-1.333zm-13.017-14.308c0 .884-.376 1.806-1.127 2.763-.751.958-1.77 1.842-3.058 2.652-1.288.812-2.773 1.492-4.453 2.045a16.907 16.907 0 0 1-5.312.829c-3.505 0-5.901-.846-7.189-2.542-1.288-1.694-1.931-3.647-1.931-5.858 0-2.357.607-4.255 1.824-5.692 1.215-1.436 2.79-2.559 4.721-3.37 1.932-.81 4.078-1.363 6.438-1.658a56.449 56.449 0 0 1 6.975-.442h3.112z"/><path fill="#fff" d="M447.538 84.92c4.046 0 7.486-3.291 7.666-7.338.18-4.046-2.965-7.338-7.011-7.338s-7.486 3.292-7.665 7.338c-.181 4.047 2.964 7.339 7.01 7.339z"/><path fill="#fff" d="M534.937 138.028c-7.584 0-13.003-2.348-15.764-5.626 17.727-3.656 31.784-14.17 31.784-27.427 0-10.59-8.008-15.408-18.312-15.408-15.753 0-28.518 12.722-28.518 30.562 0 1.916.19 4.223.387 5.482-.528.01-1.8.014-2.343.014-9.227 0-16.47-1.721-23.041-4.018 21.078-25.247 32.036-43.525 32.036-59.436 0-8.676-4.436-14.044-13.172-14.044-14.623 0-25.776 19.943-35.436 65.818-.685 3.255-3.037 15.034-3.037 15.034-3.342 3.994-8.023 8.09-13.736 8.175-4.108.06-6.896-2.245-6.896-7.786 0-8.284 4.55-20.819 7.392-30.293 1.326-4.43-7.937-7.011-9.709-2.555-1.27 3.197-2.42 6.516-3.629 9.403-8.859 21.162-19.14 31.672-29.454 31.672-5.741 0-8.88-4.512-8.622-14.296 19.689-15.648 36.23-40.54 36.024-60.9-.077-7.725-3.57-14.258-12.976-14.258-13.523 0-23.098 18.707-28.762 43.266-1.846 8.005-3.789 18.105-4.497 28.16-7.707 5.588-16.933 10.655-26.907 14.366v9.54c10.434-3.721 19.56-8.687 27.04-13.434 1.102 10.01 6.67 16.714 17.105 16.714 9.572 0 18.745-4.95 26.372-15.233.391 8.597 5.848 14.83 15.652 14.794 5.43-.02 9.95-1.963 13.18-4.655-2.061 11.716-3.447 20.364-3.31 30.792.19 14.304 5.602 21.239 15.103 21.239 13.338 0 20.326-12.757 20.373-32.175.026-10.21-2.582-21.427-6.604-29.993 5.068 1.67 12.123 2.738 19.924 2.738 1.56 0 3.274-.038 4.729-.112 4.462 7.287 12.816 13.04 27.635 13.04 13.971 0 27.295-4.736 38.802-13.885v-11.758c-8.695 8.129-21.805 16.483-38.813 16.483zM417.945 56.735c1.967 0 3.05 1.411 3.05 5.505 0 8.827-7.171 31.038-24.76 48.207 6.172-36.917 16.09-53.712 21.71-53.712zm79.934-.011c2.269 0 3.15 2.124 3.15 5.159 0 11.479-12.522 33.563-27.96 53.085 9.12-43.203 19.616-58.244 24.81-58.244zm-28.072 127.034c-4.011 0-5.512-4.388-5.512-11.295 0-11.883 3.137-30.604 5.428-41.236l1.396-1.45c4.677 8.546 7.72 20.92 7.72 32.67 0 9.064-2.076 21.31-9.032 21.31zm45.3-63.712c0-10.964 6.741-21.891 17.709-21.891 4.703 0 7.506 2.572 7.506 7.013 0 7.043-8.133 15.924-24.792 19.127-.227-1.236-.422-2.529-.422-4.249z"/><path fill="#838271" d="m621.519.735-6.747 18.151L608.017.735h-4.045v21.6h2.698v-18h.15l6.597 18h2.702l6.6-18h.151v18h2.702V.735zM584.17 3.135h7.347v19.2h2.701v-19.2h7.353v-2.4h-17.4z"/></svg>