<svg width="448" height="136" viewBox="0 0 448 136" fill="none" xmlns="http://www.w3.org/2000/svg">
<path d="M316.202 94.3831C300.819 94.3831 288.304 81.9296 288.304 66.6224C288.304 51.3151 300.819 38.8596 316.202 38.8596C331.585 38.8596 344.1 51.3151 344.1 66.6224C344.1 81.9296 331.585 94.3831 316.202 94.3831ZM344.353 66.6224V33.1131C336.465 26.533 326.608 22.9219 316.202 22.9219C291.986 22.9219 272.285 42.5254 272.285 66.6224C272.285 90.7193 291.986 110.323 316.202 110.323C326.363 110.323 336.269 106.79 344.109 100.366L344.1 135.368H359.997L360.057 100.077C350.465 92.0544 344.353 80.0382 344.353 66.6224Z" fill="#F5F5F5"/>
<path d="M143.747 66.6185C143.747 57.3291 146.683 48.7131 151.67 41.6256C143.684 30.312 130.492 22.9219 115.715 22.9219C101.449 22.9219 88.0547 29.8377 79.8179 41.4401L79.7767 41.3874C71.5438 29.826 58.1382 22.9219 43.9165 22.9219C19.7004 22.9219 0 42.5254 0 66.6224C0 66.8878 0.223622 108.752 0.23343 110.534L0.235391 110.776H16.2362L16.1676 71.0396C16.1656 71.0065 16.0185 67.7115 16.0185 66.6224C16.0185 51.3151 28.5336 38.8596 43.9165 38.8596C59.2994 38.8596 71.8145 51.3151 71.8145 66.6224L71.8478 110.532V110.776H87.4681L87.8153 66.6224C87.8153 51.3151 100.332 38.8596 115.715 38.8596C131.1 38.8596 143.615 51.3151 143.615 66.6224L143.576 110.532V110.776H159.659L159.632 100.229C149.934 92.2067 143.747 80.1202 143.747 66.6185Z" fill="#A5A5A5"/>
<path d="M187.665 94.3802C172.282 94.3802 159.767 81.9267 159.767 66.6194C159.767 51.3102 172.282 38.8567 187.665 38.8567C203.047 38.8567 215.564 51.3102 215.564 66.6194C215.564 81.9267 203.047 94.3802 187.665 94.3802ZM231.263 63.2582C231.285 63.0142 231.336 62.776 231.361 62.532C230.412 52.3077 225.947 42.8192 218.525 35.5247C210.252 27.3948 199.293 22.917 187.665 22.917C172.784 22.917 159.617 30.3266 151.671 41.6265C146.685 48.7141 143.748 57.3301 143.748 66.6194C143.748 80.1211 149.935 92.2077 159.633 100.23C167.244 106.527 177.017 110.32 187.665 110.32C197.818 110.32 207.708 106.795 215.564 100.367V110.773H231.216V110.529L231.263 63.2582Z" fill="#F5F5F5"/>
<path d="M274.786 39.2328H275.031V23.416L274.784 23.418C263.781 23.4726 253.273 27.5952 245.195 35.0282C237.347 42.2524 232.472 51.9908 231.36 62.5313C231.334 62.7753 231.284 63.0135 231.262 63.2575L231.215 110.528V110.772H247.11L247.145 65.7482C247.861 51.0655 260.003 39.4709 274.788 39.3577L274.786 39.2328Z" fill="#A5A5A5"/>
<path d="M431.574 110.773V22.9231H432.065V22.5269H416.172V66.6236C416.172 81.9308 403.657 94.3843 388.272 94.3843C372.889 94.3843 360.372 81.9308 360.372 66.6236L360.248 22.7689V22.5269H344.354V66.6236C344.354 80.0394 350.466 92.0556 360.058 100.078C367.695 106.467 377.538 110.324 388.272 110.324C398.425 110.324 408.322 106.799 416.15 100.392L416.172 100.391V135.37H432.065V110.773H431.574Z" fill="#A5A5A5"/>
<path fill-rule="evenodd" clip-rule="evenodd" d="M431.574 0H447.469V15.8168H431.574V0ZM431.574 110.35V22.5005H447.469V110.35H431.574Z" fill="#F5F5F5"/>
</svg>
