<svg xmlns="http://www.w3.org/2000/svg" width="275" height="50" fill="none"><script/><path fill="#15838A" d="M30.888 23.463V20.11l2.811-1.67L16.843 8.378v6.707l14.045 8.378Z"/><path fill="#0D333E" d="M30.888 49.166V36.879l2.811-1.683-16.856-10.049v24.02h14.045Z"/><path fill="#02426D" d="M30.888 31.84v-3.353l2.811-1.67-16.856-10.062v6.708l14.045 8.378Z"/><path fill="#6B9592" d="M30.888 15.085v-3.353l2.811-1.67L16.843 0v6.707l14.045 8.378Z"/><path fill="#257198" d="M2.799 28.487v3.354l14.044-8.378v-6.708L0 26.816l2.799 1.67Z"/><path fill="#8FC9C5" d="M2.799 11.732v3.353l14.044-8.378V0L0 10.061l2.799 1.67Z"/><path fill="#009CA8" d="M2.799 20.11v3.353l14.044-8.378V8.378L0 18.439l2.799 1.67Z"/><path fill="#02426D" d="M2.799 36.878v12.288h14.044V25.134L0 35.194l2.799 1.684ZM59.727 48.28c-.496 0-.954-.404-.954-.822V15.984h-9.605c-.585 0-.954-.43-.954-.823V8.796c0-.393.37-.823.955-.823h28.928c.585 0 .954.43.954.823v6.365c0 .405-.369.823-.954.823h-9.592v31.461c0 .43-.458.823-.954.823h-7.824v.013ZM111.682 48.28c-1.043 0-1.489-.278-2.023-1.315l-2.417-4.759H89.178l-2.418 4.822c-.216.468-.776 1.24-2.099 1.24H77.5c-.394 0-.712-.14-.865-.392-.127-.203-.127-.456 0-.709L97.027 7.872c.152-.278.521-.494.852-.494h.649c.33 0 .7.216.865.494l20.392 39.295c.128.253.128.506 0 .709-.152.253-.47.392-.865.392h-7.225l-.013.013ZM92.79 34.829h10.826l-5.177-10.086a.21.21 0 0 0-.191-.114h-.153a.237.237 0 0 0-.19.114L92.79 34.815v.013ZM149.439 48.28c-.445 0-.725-.252-.801-.379l-8.74-15.617h-4.949v15.174c0 .43-.47.823-.954.823h-7.747c-.585 0-.954-.43-.954-.823V8.796c0-.405.369-.823.954-.823h19.477c7.671 0 13.917 5.53 13.917 12.326 0 4.974-3.626 9.366-9.452 11.466l-.318.114 9.096 15.123c.165.279.178.583.038.836-.153.278-.484.43-.904.43h-8.663v.013Zm-14.49-22.855h9.923c2.786 0 5.229-2.316 5.229-4.948 0-2.633-2.392-4.72-5.229-4.72h-9.923v9.668ZM168.585 48.28c-.496 0-.954-.404-.954-.822V8.796c0-.43.458-.823.954-.823h7.824c.496 0 .954.405.954.823v38.65c0 .43-.458.822-.954.822h-7.824v.013ZM206.94 48.863c-6.233 0-12.06-2.139-16.398-6.024-4.325-3.885-6.717-9.087-6.717-14.655s2.392-10.795 6.717-14.706c4.351-3.923 10.165-6.087 16.398-6.087 6.234 0 12.06 2.164 16.424 6.087 4.35 3.91 6.742 9.138 6.742 14.706s-2.392 10.77-6.742 14.655c-4.351 3.885-10.19 6.024-16.424 6.024Zm0-32.702c-7.302 0-13.243 5.391-13.243 12.023 0 6.631 5.941 11.896 13.243 11.896 7.302 0 13.307-5.34 13.307-11.896 0-6.556-5.967-12.023-13.307-12.023ZM272.43 48.863c-.267 0-.496-.089-.661-.215L246.771 26.02c-.28-.24-.712-.05-.712.316v21.122c0 .405-.369.823-.955.823h-7.747c-.496 0-.954-.405-.954-.823l-.064-39.295c0-.405.446-.772.954-.772h1.794c.547 0 1.082.203 1.501.57l23.98 21.248c.267.24.7.05.7-.316V8.796c0-.405.369-.823.954-.823h7.824c.496 0 .954.405.954.823V48.09c0 .405-.445.772-.954.772H272.43Z"/></svg>